<svg xmlns="http://www.w3.org/2000/svg" xmlns:xlink="http://www.w3.org/1999/xlink" width="701pt" height="666pt" viewBox="0.00 0.00 701.00 666.00">
<g id="graph0" class="graph" transform="scale(1 1) rotate(0) translate(4 662)">
<polygon fill="white" stroke="transparent" points="-4,4 -4,-662 697,-662 697,4 -4,4"/>
<!-- ElectrodeConfig.Electrode -->
<g id="node1" class="node">
<title>ElectrodeConfig.Electrode</title>
<g id="a_node1"><a xlink:title="→ ElectrodeConfig→ ProbeType.Electrode">
<polygon fill="transparent" stroke="transparent" points="634,-437 503,-437 503,-418 634,-418 634,-437"/>
<text text-anchor="middle" x="568.5" y="-425" font-family="arial" font-size="10.00">ElectrodeConfig.Electrode</text>
</a>
</g>
</g>
<!-- LFP.Electrode -->
<g id="node3" class="node">
<title>LFP.Electrode</title>
<g id="a_node3"><a xlink:title="→ LFP→ ElectrodeConfig.Electrode------------------------------lfp                  ">
<polygon fill="transparent" stroke="transparent" points="336,-295 259,-295 259,-276 336,-276 336,-295"/>
<text text-anchor="middle" x="297.5" y="-283" font-family="arial" font-size="10.00">LFP.Electrode</text>
</a>
</g>
</g>
<!-- ElectrodeConfig.Electrode&#45;&gt;LFP.Electrode -->
<g id="edge1" class="edge">
<title>ElectrodeConfig.Electrode-&gt;LFP.Electrode</title>
<path fill="none" stroke="#000000" stroke-width="0.75" stroke-opacity="0.250980" d="M562.65,-417.83C550.34,-400.23 519.91,-360.21 484.5,-339 437.78,-311.01 375.59,-297.44 336.03,-291.24"/>
</g>
<!-- CuratedClustering.Unit -->
<g id="node8" class="node">
<title>CuratedClustering.Unit</title>
<g id="a_node8"><a xlink:title="→ CuratedClusteringunit                 ------------------------------→ ElectrodeConfig.Electrode→ ClusterQualityLabelspike_count          spike_times          spike_sites          spike_depths         ">
<polygon fill="transparent" stroke="transparent" points="512.5,-82 396.5,-82 396.5,-63 512.5,-63 512.5,-82"/>
<text text-anchor="start" x="404.5" y="-71" font-family="arial" text-decoration="underline" font-size="10.00">CuratedClustering.Unit</text>
</a>
</g>
</g>
<!-- ElectrodeConfig.Electrode&#45;&gt;CuratedClustering.Unit -->
<g id="edge2" class="edge">
<title>ElectrodeConfig.Electrode-&gt;CuratedClustering.Unit</title>
<path fill="none" stroke="#000000" stroke-width="0.75" stroke-dasharray="5,2" stroke-opacity="0.250980" d="M565.61,-417.77C558.65,-395.92 541.5,-337 541.5,-286.5 541.5,-286.5 541.5,-286.5 541.5,-213.5 541.5,-173.7 543.76,-159.64 522.5,-126 509.99,-106.21 487.25,-90.94 471.53,-82.1"/>
</g>
<!-- WaveformSet.Waveform -->
<g id="node12" class="node">
<title>WaveformSet.Waveform</title>
<g id="a_node12"><a xlink:title="→ WaveformSet→ CuratedClustering.Unit→ ElectrodeConfig.Electrode------------------------------waveform_mean        waveforms=null       ">
<polygon fill="transparent" stroke="transparent" points="537,-19 414,-19 414,0 537,0 537,-19"/>
<text text-anchor="middle" x="475.5" y="-7" font-family="arial" font-size="10.00">WaveformSet.Waveform</text>
</a>
</g>
</g>
<!-- ElectrodeConfig.Electrode&#45;&gt;WaveformSet.Waveform -->
<g id="edge3" class="edge">
<title>ElectrodeConfig.Electrode-&gt;WaveformSet.Waveform</title>
<path fill="none" stroke="#000000" stroke-width="0.75" stroke-opacity="0.250980" d="M569.64,-418C572.45,-396.19 579.5,-336.48 579.5,-286.5 579.5,-286.5 579.5,-286.5 579.5,-142.5 579.5,-85.03 517.91,-37.84 489.53,-19.14"/>
</g>
<!-- ProbeInsertion -->
<g id="node2" class="node">
<title>ProbeInsertion</title>
<g id="a_node2"><a xlink:title="→ Subjectinsertion_number     ------------------------------→ Probeinsertion_datetime=null ">
<polygon fill="#00ff00" fill-opacity="0.188235" stroke="#00ff00" stroke-opacity="0.188235" points="307,-516 212,-516 212,-481 307,-481 307,-516"/>
<text text-anchor="start" x="220" y="-496.4" font-family="arial" text-decoration="underline" font-size="12.00" fill="darkgreen">ProbeInsertion</text>
</a>
</g>
</g>
<!-- EphysRecording -->
<g id="node5" class="node">
<title>EphysRecording</title>
<g id="a_node5"><a xlink:title="→ Session→ ProbeInsertion------------------------------→ ElectrodeConfig→ AcquisitionSoftwaresampling_rate        recording_datetime   recording_duration   ">
<ellipse fill="#00007f" fill-opacity="0.250980" stroke="#00007f" stroke-opacity="0.250980" cx="407.5" cy="-427.5" rx="66" ry="17.5"/>
<text text-anchor="middle" x="407.5" y="-424.4" font-family="arial" font-size="12.00" fill="#00007f" fill-opacity="0.627451">EphysRecording</text>
</a>
</g>
</g>
<!-- ProbeInsertion&#45;&gt;EphysRecording -->
<g id="edge4" class="edge">
<title>ProbeInsertion-&gt;EphysRecording</title>
<path fill="none" stroke="#000000" stroke-width="0.75" stroke-opacity="0.250980" d="M294.95,-480.97C319.75,-469.41 352.56,-454.11 376.36,-443.02"/>
</g>
<!-- InsertionLocation -->
<g id="node24" class="node">
<title>InsertionLocation</title>
<g id="a_node24"><a xlink:title="→ ProbeInsertion------------------------------→ SkullReferenceap_location          ml_location          depth                theta=null           phi=null             beta=null            ">
<polygon fill="#00ff00" fill-opacity="0.188235" stroke="#00ff00" stroke-opacity="0.188235" points="301.5,-445 193.5,-445 193.5,-410 301.5,-410 301.5,-445"/>
<text text-anchor="middle" x="247.5" y="-424.4" font-family="arial" font-size="12.00" fill="darkgreen">InsertionLocation</text>
</a>
</g>
</g>
<!-- ProbeInsertion&#45;&gt;InsertionLocation -->
<g id="edge5" class="edge">
<title>ProbeInsertion-&gt;InsertionLocation</title>
<path fill="none" stroke="#000000" stroke-width="2" stroke-opacity="0.250980" d="M256.6,-480.8C254.71,-469.95 252.26,-455.87 250.38,-445.05"/>
</g>
<!-- ElectrodeConfig -->
<g id="node4" class="node">
<title>ElectrodeConfig</title>
<g id="a_node4"><a xlink:title="electrode_config_hash ------------------------------→ ProbeTypeelectrode_config_name ">
<polygon fill="#000000" fill-opacity="0.125490" stroke="transparent" points="611.5,-516 525.5,-516 525.5,-481 611.5,-481 611.5,-516"/>
<text text-anchor="start" x="533.5" y="-497" font-family="arial" text-decoration="underline" font-size="10.00">ElectrodeConfig</text>
</a>
</g>
</g>
<!-- ElectrodeConfig&#45;&gt;ElectrodeConfig.Electrode -->
<g id="edge6" class="edge">
<title>ElectrodeConfig-&gt;ElectrodeConfig.Electrode</title>
<path fill="none" stroke="#000000" stroke-width="0.75" stroke-opacity="0.250980" d="M568.5,-480.8C568.5,-467.08 568.5,-448.19 568.5,-437.27"/>
</g>
<!-- ElectrodeConfig&#45;&gt;EphysRecording -->
<g id="edge7" class="edge">
<title>ElectrodeConfig-&gt;EphysRecording</title>
<path fill="none" stroke="#000000" stroke-width="0.75" stroke-dasharray="5,2" stroke-opacity="0.250980" d="M529.94,-480.97C502.68,-469.29 466.52,-453.8 440.58,-442.68"/>
</g>
<!-- LFP -->
<g id="node6" class="node">
<title>LFP</title>
<g id="a_node6"><a xlink:title="→ EphysRecording------------------------------lfp_sampling_rate    lfp_time_stamps      lfp_mean             ">
<ellipse fill="#00007f" fill-opacity="0.250980" stroke="#00007f" stroke-opacity="0.250980" cx="297.5" cy="-356.5" rx="24.25" ry="17.5"/>
<text text-anchor="middle" x="297.5" y="-353.4" font-family="arial" font-size="12.00" fill="#00007f" fill-opacity="0.627451">LFP</text>
</a>
</g>
</g>
<!-- EphysRecording&#45;&gt;LFP -->
<g id="edge8" class="edge">
<title>EphysRecording-&gt;LFP</title>
<path fill="none" stroke="#000000" stroke-width="2" stroke-opacity="0.250980" d="M383.09,-411.19C362.58,-398.32 333.75,-380.24 315.35,-368.7"/>
</g>
<!-- ClusteringTask -->
<g id="node23" class="node">
<title>ClusteringTask</title>
<g id="a_node23"><a xlink:title="→ EphysRecording→ ClusteringParamSet------------------------------clustering_output_dir task_mode=&quot;load&quot;     ">
<polygon fill="#00ff00" fill-opacity="0.188235" stroke="#00ff00" stroke-opacity="0.188235" points="244.5,-374 148.5,-374 148.5,-339 244.5,-339 244.5,-374"/>
<text text-anchor="middle" x="196.5" y="-353.4" font-family="arial" font-size="12.00" fill="darkgreen">ClusteringTask</text>
</a>
</g>
</g>
<!-- EphysRecording&#45;&gt;ClusteringTask -->
<g id="edge9" class="edge">
<title>EphysRecording-&gt;ClusteringTask</title>
<path fill="none" stroke="#000000" stroke-width="0.75" stroke-opacity="0.250980" d="M367.32,-413.36C332.4,-401.94 281.75,-385.38 244.67,-373.25"/>
</g>
<!-- EphysRecording.EphysFile -->
<g id="node26" class="node">
<title>EphysRecording.EphysFile</title>
<g id="a_node26"><a xlink:title="→ EphysRecordingfile_path            ">
<polygon fill="transparent" stroke="transparent" points="475,-366 340,-366 340,-347 475,-347 475,-366"/>
<text text-anchor="start" x="348" y="-355" font-family="arial" text-decoration="underline" font-size="10.00">EphysRecording.EphysFile</text>
</a>
</g>
</g>
<!-- EphysRecording&#45;&gt;EphysRecording.EphysFile -->
<g id="edge10" class="edge">
<title>EphysRecording-&gt;EphysRecording.EphysFile</title>
<path fill="none" stroke="#000000" stroke-width="0.75" stroke-opacity="0.250980" d="M407.5,-409.8C407.5,-396.08 407.5,-377.19 407.5,-366.27"/>
</g>
<!-- LFP&#45;&gt;LFP.Electrode -->
<g id="edge11" class="edge">
<title>LFP-&gt;LFP.Electrode</title>
<path fill="none" stroke="#000000" stroke-width="0.75" stroke-opacity="0.250980" d="M297.5,-338.8C297.5,-325.08 297.5,-306.19 297.5,-295.27"/>
</g>
<!-- Session -->
<g id="node7" class="node">
<title>Session</title>
<g id="a_node7"><a xlink:title="→ Subjectsession_datetime     ">
<polygon fill="#00ff00" fill-opacity="0.188235" stroke="#00ff00" stroke-opacity="0.188235" points="507.5,-516 447.5,-516 447.5,-481 507.5,-481 507.5,-516"/>
<text text-anchor="start" x="455.5" y="-496.4" font-family="arial" text-decoration="underline" font-size="12.00" fill="darkgreen">Session</text>
</a>
</g>
</g>
<!-- Session&#45;&gt;EphysRecording -->
<g id="edge12" class="edge">
<title>Session-&gt;EphysRecording</title>
<path fill="none" stroke="#000000" stroke-width="0.75" stroke-opacity="0.250980" d="M460.55,-480.8C449.39,-469.79 434.84,-455.45 423.81,-444.57"/>
</g>
<!-- CuratedClustering.Unit&#45;&gt;WaveformSet.Waveform -->
<g id="edge13" class="edge">
<title>CuratedClustering.Unit-&gt;WaveformSet.Waveform</title>
<path fill="none" stroke="#000000" stroke-width="0.75" stroke-opacity="0.250980" d="M457.51,-62.76C461.5,-51.16 468.51,-30.81 472.5,-19.22"/>
</g>
<!-- WaveformSet.PeakWaveform -->
<g id="node18" class="node">
<title>WaveformSet.PeakWaveform</title>
<g id="a_node18"><a xlink:title="→ WaveformSet→ CuratedClustering.Unit------------------------------peak_electrode_waveform ">
<polygon fill="transparent" stroke="transparent" points="395.5,-19 249.5,-19 249.5,0 395.5,0 395.5,-19"/>
<text text-anchor="middle" x="322.5" y="-7" font-family="arial" font-size="10.00">WaveformSet.PeakWaveform</text>
</a>
</g>
</g>
<!-- CuratedClustering.Unit&#45;&gt;WaveformSet.PeakWaveform -->
<g id="edge14" class="edge">
<title>CuratedClustering.Unit-&gt;WaveformSet.PeakWaveform</title>
<path fill="none" stroke="#000000" stroke-width="2" stroke-opacity="0.250980" d="M435.87,-62.89C410.71,-51.26 366.15,-30.67 341.04,-19.07"/>
</g>
<!-- Probe -->
<g id="node9" class="node">
<title>Probe</title>
<g id="a_node9"><a xlink:title="probe                ------------------------------→ ProbeTypeprobe_comment=&quot;&quot;     ">
<polygon fill="#000000" fill-opacity="0.125490" stroke="transparent" points="318.5,-587 276.5,-587 276.5,-552 318.5,-552 318.5,-587"/>
<text text-anchor="start" x="284.5" y="-568" font-family="arial" text-decoration="underline" font-size="10.00">Probe</text>
</a>
</g>
</g>
<!-- Probe&#45;&gt;ProbeInsertion -->
<g id="edge15" class="edge">
<title>Probe-&gt;ProbeInsertion</title>
<path fill="none" stroke="#000000" stroke-width="0.75" stroke-dasharray="5,2" stroke-opacity="0.250980" d="M288.3,-551.8C282.33,-540.95 274.57,-526.87 268.61,-516.05"/>
</g>
<!-- WaveformSet -->
<g id="node10" class="node">
<title>WaveformSet</title>
<g id="a_node10"><a xlink:title="→ CuratedClustering">
<ellipse fill="#00007f" fill-opacity="0.250980" stroke="#00007f" stroke-opacity="0.250980" cx="322.5" cy="-72.5" rx="55.75" ry="17.5"/>
<text text-anchor="middle" x="322.5" y="-69.4" font-family="arial" font-size="12.00" fill="#00007f" fill-opacity="0.627451">WaveformSet</text>
</a>
</g>
</g>
<!-- WaveformSet&#45;&gt;WaveformSet.Waveform -->
<g id="edge16" class="edge">
<title>WaveformSet-&gt;WaveformSet.Waveform</title>
<path fill="none" stroke="#000000" stroke-width="0.75" stroke-opacity="0.250980" d="M355.7,-58.26C385.58,-46.35 428.61,-29.2 454.14,-19.02"/>
</g>
<!-- WaveformSet&#45;&gt;WaveformSet.PeakWaveform -->
<g id="edge17" class="edge">
<title>WaveformSet-&gt;WaveformSet.PeakWaveform</title>
<path fill="none" stroke="#000000" stroke-width="0.75" stroke-opacity="0.250980" d="M322.5,-54.83C322.5,-43.26 322.5,-28.32 322.5,-19.08"/>
</g>
<!-- AcquisitionSoftware -->
<g id="node11" class="node">
<title>AcquisitionSoftware</title>
<g id="a_node11"><a xlink:title="acq_software         ">
<polygon fill="#000000" fill-opacity="0.125490" stroke="transparent" points="429.5,-516 325.5,-516 325.5,-481 429.5,-481 429.5,-516"/>
<text text-anchor="start" x="333.5" y="-497" font-family="arial" text-decoration="underline" font-size="10.00">AcquisitionSoftware</text>
</a>
</g>
</g>
<!-- AcquisitionSoftware&#45;&gt;EphysRecording -->
<g id="edge18" class="edge">
<title>AcquisitionSoftware-&gt;EphysRecording</title>
<path fill="none" stroke="#000000" stroke-width="0.75" stroke-dasharray="5,2" stroke-opacity="0.250980" d="M384.76,-480.8C389.48,-469.95 395.6,-455.87 400.3,-445.05"/>
</g>
<!-- ClusteringMethod -->
<g id="node13" class="node">
<title>ClusteringMethod</title>
<g id="a_node13"><a xlink:title="clustering_method    ------------------------------clustering_method_desc ">
<polygon fill="#000000" fill-opacity="0.125490" stroke="transparent" points="93,-516 0,-516 0,-481 93,-481 93,-516"/>
<text text-anchor="start" x="8" y="-497" font-family="arial" text-decoration="underline" font-size="10.00">ClusteringMethod</text>
</a>
</g>
</g>
<!-- ClusteringParamSet -->
<g id="node14" class="node">
<title>ClusteringParamSet</title>
<g id="a_node14"><a xlink:title="paramset_idx         ------------------------------→ ClusteringMethodparamset_desc        param_set_hash       params               UNIQUE INDEX (param_set_hash)">
<polygon fill="#000000" fill-opacity="0.125490" stroke="transparent" points="131.5,-445 27.5,-445 27.5,-410 131.5,-410 131.5,-445"/>
<text text-anchor="start" x="35.5" y="-426" font-family="arial" text-decoration="underline" font-size="10.00">ClusteringParamSet</text>
</a>
</g>
</g>
<!-- ClusteringMethod&#45;&gt;ClusteringParamSet -->
<g id="edge19" class="edge">
<title>ClusteringMethod-&gt;ClusteringParamSet</title>
<path fill="none" stroke="#000000" stroke-width="0.75" stroke-dasharray="5,2" stroke-opacity="0.250980" d="M54.49,-480.8C59.68,-469.95 66.41,-455.87 71.59,-445.05"/>
</g>
<!-- ClusteringParamSet&#45;&gt;ClusteringTask -->
<g id="edge20" class="edge">
<title>ClusteringParamSet-&gt;ClusteringTask</title>
<path fill="none" stroke="#000000" stroke-width="0.75" stroke-opacity="0.250980" d="M107.52,-409.97C125.91,-399.13 149.87,-385 168.3,-374.13"/>
</g>
<!-- CuratedClustering -->
<g id="node15" class="node">
<title>CuratedClustering</title>
<g id="a_node15"><a xlink:title="→ Curation">
<ellipse fill="#00007f" fill-opacity="0.250980" stroke="#00007f" stroke-opacity="0.250980" cx="322.5" cy="-143.5" rx="71" ry="17.5"/>
<text text-anchor="middle" x="322.5" y="-140.4" font-family="arial" font-size="12.00" fill="#00007f" fill-opacity="0.627451">CuratedClustering</text>
</a>
</g>
</g>
<!-- CuratedClustering&#45;&gt;CuratedClustering.Unit -->
<g id="edge21" class="edge">
<title>CuratedClustering-&gt;CuratedClustering.Unit</title>
<path fill="none" stroke="#000000" stroke-width="0.75" stroke-opacity="0.250980" d="M351.47,-127.36C378.03,-113.47 416.42,-93.4 438.06,-82.09"/>
</g>
<!-- CuratedClustering&#45;&gt;WaveformSet -->
<g id="edge22" class="edge">
<title>CuratedClustering-&gt;WaveformSet</title>
<path fill="none" stroke="#000000" stroke-width="2" stroke-opacity="0.250980" d="M322.5,-125.8C322.5,-114.95 322.5,-100.87 322.5,-90.05"/>
</g>
<!-- ProbeType.Electrode -->
<g id="node16" class="node">
<title>ProbeType.Electrode</title>
<g id="a_node16"><a xlink:title="→ ProbeTypeelectrode            ------------------------------shank                shank_col            shank_row            x_coord=null         y_coord=null         ">
<polygon fill="transparent" stroke="transparent" points="693,-579 586,-579 586,-560 693,-560 693,-579"/>
<text text-anchor="start" x="594" y="-568" font-family="arial" text-decoration="underline" font-size="10.00">ProbeType.Electrode</text>
</a>
</g>
</g>
<!-- ProbeType.Electrode&#45;&gt;ElectrodeConfig.Electrode -->
<g id="edge23" class="edge">
<title>ProbeType.Electrode-&gt;ElectrodeConfig.Electrode</title>
<path fill="none" stroke="#000000" stroke-width="0.75" stroke-opacity="0.250980" d="M639.2,-559.75C638.31,-543.33 634.74,-507.23 620.5,-481 610.59,-462.73 592.4,-446.56 580.37,-437.15"/>
</g>
<!-- Clustering -->
<g id="node17" class="node">
<title>Clustering</title>
<g id="a_node17"><a xlink:title="→ ClusteringTask------------------------------clustering_time      package_version=&quot;&quot;   ">
<ellipse fill="#00007f" fill-opacity="0.250980" stroke="#00007f" stroke-opacity="0.250980" cx="196.5" cy="-285.5" rx="44.25" ry="17.5"/>
<text text-anchor="middle" x="196.5" y="-282.4" font-family="arial" font-size="12.00" fill="#00007f" fill-opacity="0.627451">Clustering</text>
</a>
</g>
</g>
<!-- Curation -->
<g id="node22" class="node">
<title>Curation</title>
<g id="a_node22"><a xlink:title="→ Clusteringcuration_id          ------------------------------curation_time        curation_output_dir  quality_control      manual_curation      curation_note=&quot;&quot;     ">
<polygon fill="#00ff00" fill-opacity="0.188235" stroke="#00ff00" stroke-opacity="0.188235" points="290.5,-232 228.5,-232 228.5,-197 290.5,-197 290.5,-232"/>
<text text-anchor="start" x="236.5" y="-212.4" font-family="arial" text-decoration="underline" font-size="12.00" fill="darkgreen">Curation</text>
</a>
</g>
</g>
<!-- Clustering&#45;&gt;Curation -->
<g id="edge24" class="edge">
<title>Clustering-&gt;Curation</title>
<path fill="none" stroke="#000000" stroke-width="0.75" stroke-opacity="0.250980" d="M210.8,-268.84C220.82,-257.87 234.19,-243.23 244.38,-232.06"/>
</g>
<!-- ClusterQualityLabel -->
<g id="node19" class="node">
<title>ClusterQualityLabel</title>
<g id="a_node19"><a xlink:title="cluster_quality_label ------------------------------cluster_quality_description ">
<polygon fill="#000000" fill-opacity="0.125490" stroke="transparent" points="513.5,-161 411.5,-161 411.5,-126 513.5,-126 513.5,-161"/>
<text text-anchor="start" x="419.5" y="-142" font-family="arial" text-decoration="underline" font-size="10.00">ClusterQualityLabel</text>
</a>
</g>
</g>
<!-- ClusterQualityLabel&#45;&gt;CuratedClustering.Unit -->
<g id="edge25" class="edge">
<title>ClusterQualityLabel-&gt;CuratedClustering.Unit</title>
<path fill="none" stroke="#000000" stroke-width="0.75" stroke-dasharray="5,2" stroke-opacity="0.250980" d="M460.56,-125.8C458.97,-112.08 456.78,-93.19 455.52,-82.27"/>
</g>
<!-- SkullReference -->
<g id="node20" class="node">
<title>SkullReference</title>
<g id="a_node20"><a xlink:title="skull_reference      ">
<polygon fill="#000000" fill-opacity="0.125490" stroke="transparent" points="194,-516 111,-516 111,-481 194,-481 194,-516"/>
<text text-anchor="start" x="119" y="-497" font-family="arial" text-decoration="underline" font-size="10.00">SkullReference</text>
</a>
</g>
</g>
<!-- SkullReference&#45;&gt;InsertionLocation -->
<g id="edge26" class="edge">
<title>SkullReference-&gt;InsertionLocation</title>
<path fill="none" stroke="#000000" stroke-width="0.75" stroke-dasharray="5,2" stroke-opacity="0.250980" d="M175.5,-480.8C190.43,-469.95 209.82,-455.87 224.71,-445.05"/>
</g>
<!-- ProbeType -->
<g id="node21" class="node">
<title>ProbeType</title>
<g id="a_node21"><a xlink:title="probe_type           ">
<polygon fill="#000000" fill-opacity="0.125490" stroke="transparent" points="671,-658 608,-658 608,-623 671,-623 671,-658"/>
<text text-anchor="start" x="616" y="-639" font-family="arial" text-decoration="underline" font-size="10.00">ProbeType</text>
</a>
</g>
</g>
<!-- ProbeType&#45;&gt;ElectrodeConfig -->
<g id="edge27" class="edge">
<title>ProbeType-&gt;ElectrodeConfig</title>
<path fill="none" stroke="#000000" stroke-width="0.75" stroke-dasharray="5,2" stroke-opacity="0.250980" d="M611.32,-622.78C598.81,-613.82 585.2,-601.6 577.5,-587 565.67,-564.58 565.4,-534.44 566.67,-516.03"/>
</g>
<!-- ProbeType&#45;&gt;Probe -->
<g id="edge28" class="edge">
<title>ProbeType-&gt;Probe</title>
<path fill="none" stroke="#000000" stroke-width="0.75" stroke-dasharray="5,2" stroke-opacity="0.250980" d="M607.63,-633.98C556.28,-624.96 452.11,-606.14 364.5,-587 349.05,-583.63 331.72,-579.34 318.56,-575.99"/>
</g>
<!-- ProbeType&#45;&gt;ProbeType.Electrode -->
<g id="edge29" class="edge">
<title>ProbeType-&gt;ProbeType.Electrode</title>
<path fill="none" stroke="#000000" stroke-width="0.75" stroke-opacity="0.250980" d="M639.5,-622.8C639.5,-609.08 639.5,-590.19 639.5,-579.27"/>
</g>
<!-- Curation&#45;&gt;CuratedClustering -->
<g id="edge30" class="edge">
<title>Curation-&gt;CuratedClustering</title>
<path fill="none" stroke="#000000" stroke-width="2" stroke-opacity="0.250980" d="M274.75,-196.8C284.66,-185.95 297.51,-171.87 307.39,-161.05"/>
</g>
<!-- ClusteringTask&#45;&gt;Clustering -->
<g id="edge31" class="edge">
<title>ClusteringTask-&gt;Clustering</title>
<path fill="none" stroke="#000000" stroke-width="2" stroke-opacity="0.250980" d="M196.5,-338.8C196.5,-327.95 196.5,-313.87 196.5,-303.05"/>
</g>
<!-- Subject -->
<g id="node25" class="node">
<title>Subject</title>
<g id="a_node25"><a xlink:title="subject              ------------------------------sex                  subject_birth_date   subject_description=&quot;&quot; ">
<polygon fill="#00ff00" fill-opacity="0.188235" stroke="#00ff00" stroke-opacity="0.188235" points="431,-587 374,-587 374,-552 431,-552 431,-587"/>
<text text-anchor="start" x="382" y="-567.4" font-family="arial" text-decoration="underline" font-size="12.00" fill="darkgreen">Subject</text>
</a>
</g>
</g>
<!-- Subject&#45;&gt;ProbeInsertion -->
<g id="edge32" class="edge">
<title>Subject-&gt;ProbeInsertion</title>
<path fill="none" stroke="#000000" stroke-width="0.75" stroke-opacity="0.250980" d="M373.91,-554.7C350.84,-543.57 318.32,-527.88 293.84,-516.07"/>
</g>
<!-- Subject&#45;&gt;Session -->
<g id="edge33" class="edge">
<title>Subject-&gt;Session</title>
<path fill="none" stroke="#000000" stroke-width="0.75" stroke-opacity="0.250980" d="M420.66,-551.8C432.45,-540.95 447.75,-526.87 459.51,-516.05"/>
</g>
</g>
</svg>